<?xml version="1.0" encoding="utf-8"?>
<!-- Generator: Adobe Illustrator 23.0.3, SVG Export Plug-In . SVG Version: 6.00 Build 0)  -->
<svg version="1.1" id="LOGO1" xmlns="http://www.w3.org/2000/svg" xmlns:xlink="http://www.w3.org/1999/xlink" x="0px" y="0px"
	 viewBox="0 0 1000 349" style="enable-background:new 0 0 1000 349;" xml:space="preserve">
<style type="text/css">
	.st0{fill-rule:evenodd;clip-rule:evenodd;fill:#FFFFFF;}
	.st1{fill:#FFFFFF;}
</style>
<g id="LOGO_x5F_0_2_">
	<g id="LINE">
		<path class="st0" d="M15.9,322.9c322.7-9.1,645.5-8.7,968.2,1.4c0,0-199.9-20.7-487.2-21.1C209.6,302.7,15.9,322.9,15.9,322.9z"/>
	</g>
	<g id="LETTERS">
		<path class="st1" d="M175.8,110.9c-16-17.3-35.3-25.5-58.2-25.5c-10.5,0-20.3,1.8-29.6,5.5c-10.6,4.2-19.3,11.4-25.6,19.8L62.4,6
			H15.9v263.2h46.4v-23.1c8.6,8.2,16.9,13.8,25.6,17.4c8.7,3.6,18.1,5.4,28.1,5.4c22.6,0,42.2-8.7,58.7-26.2
			c16.5-17.5,24.8-39.3,24.9-65.3C199.7,150.4,191.7,128.2,175.8,110.9z M108.8,221c-24.6,0-44.6-20-44.6-44.7
			c0-24.6,20-44.6,44.7-44.6c24.6,0,44.6,20,44.6,44.7C153.5,201,133.5,221,108.8,221z"/>
		<path class="st1" d="M385.8,131.5c-8.1-14.2-19.5-25.4-34.1-33.7c-14.6-8.3-30.1-12.4-46.7-12.4c-22.9,0-43.2,7.9-60.8,23.7
			c-20.1,18.2-30.2,41-30.2,68.3c0,25.5,8.8,47.2,26.6,65.1c17.8,17.9,39.2,26.8,64.4,26.9c17.1,0,32.7-4,46.9-12.1
			c14.2-8.1,25.4-19.3,33.7-33.6c8.2-14.4,12.4-29.8,12.4-46.3C398.1,161,394,145.7,385.8,131.5z M305.8,221
			c-24.7,0-44.7-20-44.7-44.7c0-24.6,20.1-44.6,44.8-44.6c24.7,0,44.7,20,44.7,44.7C350.5,201.1,330.5,221,305.8,221z"/>
		<path class="st1" d="M773.7,233.4c0-43.7,0-148.1,0-148.1h-48v24.1c-9-8.5-17.1-14.6-26.1-18.3c-8.9-3.7-18.5-5.6-28.5-5.6
			c-21.5,0-40.1,7.6-55.7,22.8c-17.2,16.8-25.8,39.1-25.8,66.9c0,25.9,8,51.9,24.2,68.9c16.2,17,36,25.5,59.5,25.5
			c10.7,0,20.3-1.7,28.8-5c8.5-3.4,16.6-8.9,24.3-16.6c0,1.2-0.1,2.4-0.1,3.6c-1.8,28.3-25.1,52.1-53.8,52.1
			c-23.1,0-44.7-15.7-54.9-30.4l-27.9,27.9c18.5,25.8,48.7,42.6,82.8,42.6c56.2,0,101.4-45.5,101.4-101.8
			C773.7,238.6,773.7,235.8,773.7,233.4z M681,221c-24.6,0-44.6-20-44.6-44.7c0-24.6,20-44.6,44.7-44.6c24.6,0,44.6,20,44.6,44.7
			C725.6,201,705.6,221,681,221z"/>
		<path class="st1" d="M575.2,149.5c0-35.4-28.6-64.1-64-64.1c-20.9,0-39.4,9.9-51.2,25.4l0-25.4l-47.6,0v183.9h47.6l-0.1-74.4
			c0-6.2,0-27.9,0-29.3c0-18.8,15.2-33.9,34-33.9c18.8,0,33.9,15.2,33.9,34c0,1.3,0,20.5,0,22.9l-0.1,80.7l47.4,0.1
			C575.1,269.3,575.2,150,575.2,149.5z"/>
	</g>
	<g id="ICON_1_">
		<g>
			<path class="st1" d="M933.6,91.9L946,67.3c0.5,0,0.9,0.1,1.4,0.1c6.8,0,12.2-5.5,12.2-12.2s-5.5-12.2-12.2-12.2
				s-12.2,5.5-12.2,12.2c0,3.3,1.3,6.3,3.4,8.5l-12.4,24.5c-12.2-5.5-25.8-8.6-40-8.6c-6.2,0-12.3,0.6-18.2,1.7l-7.3-28.7
				c8.1-4,13.7-12.3,13.7-21.9c0-13.5-11-24.5-24.5-24.5c-13.5,0-24.5,11-24.5,24.5c0,13.5,11,24.5,24.5,24.5c0.2,0,0.4,0,0.5,0
				l7.3,28.7c-30.5,9.3-54.7,33-64.6,63.3c-3.1,9.6-4.8,19.8-4.8,30.4c0,54.1,43.8,97.9,97.9,97.9c45.3,0,83.4-30.8,94.6-72.6
				c2.1-8.1,3.3-16.6,3.3-25.3C984.1,140.7,963.7,108.6,933.6,91.9z M867.7,230.9c-0.2,0.1-0.3,0.2-0.5,0.3
				c-1.7,0.9-3.7,1.5-5.8,1.5c-6.8,0-12.2-5.5-12.2-12.2v-32.1v-53.9c0.1-6.7,5.5-12.1,12.2-12.1c2.1,0,4.1,0.5,5.8,1.5l0.1,0
				l74.3,42.9c0.2,0.1,0.4,0.2,0.6,0.4c3.5,2.2,5.8,6,5.8,10.4c0,4.3-2.3,8.2-5.7,10.3c-0.2,0.2-0.5,0.3-0.7,0.4l0,0l-31.7,18.3
				L867.7,230.9z"/>
		</g>
	</g>
</g>
</svg>
